HIERARCHY
ROOT Hips
{
	OFFSET 0.000000 0.000000 0.000000
	CHANNELS 6 Xposition Yposition Zposition Zrotation Yrotation Xrotation 
	JOINT LHipJoint
	{
		OFFSET 0.000000 0.000000 0.000000
		CHANNELS 3 Zrotation Yrotation Xrotation
		JOINT LeftUpLeg
		{
			OFFSET 1.363060 -1.794630 0.839290
			CHANNELS 3 Zrotation Yrotation Xrotation
			JOINT LeftLeg
			{
				OFFSET 2.448110 -6.726130 0.000000
				CHANNELS 3 Zrotation Yrotation Xrotation
				JOINT LeftFoot
				{
					OFFSET 2.562200 -7.039590 0.000000
					CHANNELS 3 Zrotation Yrotation Xrotation
					JOINT LeftToeBase
					{
						OFFSET 0.157640 -0.433110 2.322550
						CHANNELS 3 Zrotation Yrotation Xrotation
						End Site
						{
							OFFSET 0.000000 0.000000 0.000000
						}
					}
				}
			}
		}
	}
	JOINT RHipJoint
	{
		OFFSET 0.000000 0.000000 0.000000
		CHANNELS 3 Zrotation Yrotation Xrotation
		JOINT RightUpLeg
		{
			OFFSET -1.305520 -1.794630 0.839290
			CHANNELS 3 Zrotation Yrotation Xrotation
			JOINT RightLeg
			{
				OFFSET -2.542530 -6.985550 0.000000
				CHANNELS 3 Zrotation Yrotation Xrotation
				JOINT RightFoot
				{
					OFFSET -2.568260 -7.056230 0.000000
					CHANNELS 3 Zrotation Yrotation Xrotation
					JOINT RightToeBase
					{
						OFFSET -0.164730 -0.452590 2.363150
						CHANNELS 3 Zrotation Yrotation Xrotation
						End Site
						{
							OFFSET 0.000000 0.000000 0.000000
						}
					}
				}
			}
		}
	}
}
MOTION
Frames: 33
Frame Time: 0.008333
3.224724 16.383886 0.885624 166.490519 -72.678594 -149.269309 -9.836330 -0.192617 -2.166943 -4.413928 21.045823 -30.465600 -1.764944 0.627248 26.877423 3.648676 24.074343 -1.843192 3.004701 0.000000 -59.934099 11.472188 1.270949 2.635714 -7.580999 -4.650901 -43.139722 0.711270 -2.726511 37.965429 -0.911113 -2.423038 -4.664341 -0.380101 -0.000000 -76.752100
3.190879 16.428984 0.890736 169.368787 -69.760751 -151.666815 -9.947484 -0.063306 -2.310976 -4.527580 22.445765 -29.714553 -1.833906 0.574092 25.601288 3.822166 25.416211 -1.333185 3.442000 0.000000 -59.339300 11.313716 1.145510 3.150324 -7.490916 -2.837369 -43.745206 0.716898 -2.525102 36.338938 -0.673830 -1.307425 -3.569559 -0.329300 -0.000000 -77.047100
3.154564 16.479190 0.897975 171.778949 -66.834878 -153.557631 -10.060459 0.068645 -2.432165 -4.595873 23.852741 -28.960044 -1.903508 0.510455 24.201598 3.977301 26.685131 -0.722642 3.945600 0.000000 -58.747300 11.148364 0.991827 3.664311 -7.318044 -1.079507 -44.245055 0.754487 -2.308033 34.408734 -0.414057 -0.114935 -2.276932 -0.235300 -0.000000 -77.417100
3.116568 16.533018 0.906658 173.850842 -63.930469 -155.077472 -10.184888 0.195729 -2.536231 -4.603943 25.266710 -28.209467 -1.973540 0.440348 22.714433 4.107077 27.836641 -0.020957 4.504300 0.000000 -58.187800 10.968721 0.809961 4.170900 -7.062699 0.627036 -44.622300 0.824813 -2.077762 32.199642 -0.139131 1.122134 -0.793477 -0.087900 0.000000 -77.841800
3.077648 16.588975 0.916319 175.679204 -61.074115 -156.327051 -10.326588 0.312331 -2.630771 -4.537302 26.689364 -27.465498 -2.043992 0.368436 21.178196 4.205818 28.830671 0.761334 5.101800 0.000000 -57.701300 10.770811 0.603970 4.663881 -6.730004 2.291205 -44.862192 0.927949 -1.836956 29.747122 0.142198 2.367886 0.867804 0.119301 -0.000000 -78.299100
3.038874 16.645545 0.926402 177.319098 -58.289497 -157.371304 -10.486687 0.414616 -2.724312 -4.383760 28.119925 -26.725672 -2.114932 0.299208 19.630117 4.269634 29.635869 1.613955 5.718400 0.000000 -57.337500 10.555049 0.382066 5.137472 -6.332449 3.920070 -44.954442 1.062520 -1.588904 27.097644 0.420357 3.585984 2.686188 0.388400 -0.000000 -78.766300
3.001304 16.701221 0.936398 178.804578 -55.602622 -158.254930 -10.662146 0.500612 -2.823996 -4.137714 29.548954 -25.986213 -2.186033 0.236346 18.107384 4.297245 30.232172 2.521707 6.330600 -0.000001 -57.111000 10.325576 0.155399 5.586330 -5.888762 5.512892 -44.897793 1.225715 -1.337924 24.311475 0.686134 4.745264 4.630525 0.716600 -0.000000 -79.199000
2.966224 16.754721 0.945861 -179.850101 -53.038902 -159.007383 -10.846573 0.570446 -2.936129 -3.800422 30.963378 -25.239762 -2.256969 0.182502 16.640768 4.289313 30.611291 3.471098 6.915900 -0.000001 -57.045701 10.089896 -0.062747 6.004527 -5.421536 7.058487 -44.700148 1.412599 -1.089145 21.459873 0.931639 5.823593 6.659744 1.096800 0.000000 -79.567400
2.934649 16.804831 0.954255 -178.641934 -50.627304 -159.642516 -11.031030 0.626529 -3.061757 -3.382893 32.334019 -24.482369 -2.326405 0.138434 15.255186 4.249844 30.784026 4.446249 7.456100 -0.000000 -57.147600 9.858449 -0.259304 6.386016 -4.952864 8.530764 -44.383907 1.616422 -0.848423 18.624297 1.151584 6.813318 8.721416 1.520001 0.000000 -79.831500
2.907659 16.850683 0.961414 -177.569478 -48.394733 -160.177113 -11.205929 0.672486 -3.201189 -2.903007 33.637887 -23.714744 -2.394091 0.104523 13.971518 4.183105 30.762687 5.426835 7.932800 0.000000 -57.387100 9.642229 -0.423262 6.724023 -4.498285 9.896756 -43.977499 1.829057 -0.621370 15.885962 1.343361 7.719070 10.757062 1.976100 -0.000000 -79.968200
2.886078 16.891676 0.967011 -176.638229 -46.367745 -160.613482 -11.361324 0.713128 -3.347806 -2.387541 34.832671 -22.945296 -2.457810 0.079038 12.800149 4.096956 30.584645 6.395109 8.340800 -0.000000 -57.756100 9.453354 -0.547178 7.011837 -4.065939 11.112508 -43.519032 2.041874 -0.413020 13.320562 1.507502 8.558666 12.705508 2.457200 -0.000000 -79.964000
2.870441 16.927525 0.971050 -175.846052 -44.566445 -160.960719 -11.489453 0.752641 -3.496995 -1.864740 35.898399 -22.192085 -2.517970 0.061222 11.750937 3.997010 30.274660 7.328783 8.671999 0.000000 -58.203501 9.301049 -0.628351 7.244236 -3.654948 12.141851 -43.041646 2.247203 -0.226369 10.983903 1.646342 9.351708 14.511928 2.955300 0.000000 -79.823000
2.860898 16.958162 0.973604 -175.187862 -43.008530 -161.220737 -11.584573 0.794159 -3.639443 -1.365806 36.802006 -21.480294 -2.572825 0.049148 10.824943 3.891288 29.875377 8.208652 8.930600 -0.000000 -58.704001 9.192247 -0.667921 7.418154 -3.261717 12.954695 -42.576304 2.438983 -0.062307 8.907883 1.763201 10.113290 16.134939 3.462100 0.000000 -79.570500
2.857327 16.983803 0.974865 -174.656571 -41.702157 -161.397875 -11.643987 0.839721 -3.769849 -0.920988 37.534530 -20.837525 -2.622900 0.041825 10.018898 3.785011 29.416341 9.018622 9.120300 0.000000 -59.222500 9.130164 -0.669381 7.532030 -2.881811 13.532155 -42.145248 2.613485 0.079694 7.106001 1.862181 10.855895 17.546034 3.969599 0.000000 -79.237700
2.859486 17.004727 0.974934 -174.249844 -40.649987 -161.491050 -11.667257 0.890627 -3.883264 -0.559123 38.089046 -20.288435 -2.668196 0.037825 9.321215 3.683292 28.931392 9.747939 9.251600 -0.000000 -59.740400 9.115473 -0.637078 7.585677 -2.513632 13.863405 -41.767446 2.768712 0.200771 5.579763 1.947559 11.588892 18.729541 4.470300 0.000000 -78.862901
2.866538 17.021312 0.974214 -173.950948 -39.846447 -161.505256 -11.657636 0.945450 -3.977573 -0.297331 38.473865 -19.856731 -2.709711 0.036652 8.720958 3.589612 28.442988 10.385105 9.331200 -0.000000 -60.236900 9.143283 -0.576399 7.583656 -2.162720 13.966240 -41.449568 2.904470 0.304538 4.302544 2.021259 12.296196 19.691948 4.948800 -0.000000 -78.495100
2.877589 17.033961 0.972947 -173.745119 -39.276705 -161.446074 -11.620359 1.001591 -4.055955 -0.141795 38.718540 -19.558397 -2.750645 0.038670 8.206710 3.504569 27.957099 10.921996 9.360900 0.000000 -60.685600 9.205809 -0.492314 7.532964 -1.839894 13.876442 -41.190208 3.021231 0.395040 3.237473 2.083983 12.950143 20.452652 5.386100 0.000000 -78.178500
2.891684 17.042960 0.971419 -173.629006 -38.922269 -161.314449 -11.560331 1.060046 -4.120423 -0.104623 38.838045 -19.384829 -2.790934 0.040997 7.743725 3.430154 27.500077 11.366665 9.358500 -0.000000 -61.104900 9.299102 -0.386714 7.432210 -1.541371 13.589167 -41.010687 3.121564 0.469934 2.406076 2.141735 13.585160 21.003679 5.789700 -0.000000 -77.922800
2.907644 17.048614 0.970108 -173.574308 -38.754029 -161.125525 -11.485000 1.115200 -4.180247 -0.165935 38.880963 -19.335012 -2.834720 0.044819 7.322500 3.364399 27.059874 11.714065 9.318600 0.000000 -61.481500 9.411290 -0.263622 7.292530 -1.280523 13.173466 -40.897623 3.206621 0.533930 1.757231 2.192154 14.152459 21.383019 6.135900 0.000000 -77.760800
2.924246 17.051182 0.969420 -173.555622 -38.738516 -160.894361 -11.401028 1.163018 -4.245796 -0.304107 38.894354 -19.393660 -2.885389 0.050280 6.926979 3.304750 26.623966 11.965344 9.237900 -0.000000 -61.805300 9.532974 -0.125695 7.121353 -1.061761 12.682386 -40.844728 3.278058 0.588629 1.267172 2.234923 14.630839 21.616519 6.413400 0.000000 -77.702200
2.940420 17.050912 0.969608 -173.556726 -38.841189 -160.632189 -11.313284 1.202011 -4.324419 -0.502325 38.907727 -19.532308 -2.943372 0.055510 6.530505 3.250239 26.196226 12.131436 9.124401 0.000000 -62.087200 9.658555 0.025672 6.921233 -0.876546 12.140688 -40.861277 3.338070 0.631610 0.950195 2.272749 15.039691 21.709604 6.629400 -0.000000 -77.729900
2.954975 17.048056 0.970925 -173.548715 -39.023842 -160.359437 -11.228168 1.228333 -4.424140 -0.730221 38.963720 -19.728308 -3.010803 0.060911 6.123977 3.197671 25.757832 12.216989 8.972700 0.000000 -62.317100 9.778685 0.186217 6.702787 -0.724163 11.607141 -40.935032 3.387880 0.664505 0.779704 2.304141 15.355591 21.692172 6.775300 -0.000001 -77.834400
2.967011 17.042962 0.973308 -173.517317 -39.249537 -160.093742 -11.151745 1.240934 -4.546965 -0.964457 39.092139 -19.955974 -3.087970 0.066108 5.697994 3.144765 25.299000 12.231537 8.783199 -0.000000 -62.491100 9.885420 0.350056 6.477577 -0.598674 11.122870 -41.059641 3.428586 0.687437 0.744185 2.329152 15.574249 21.584898 6.852099 0.000000 -77.993399
2.975628 17.035854 0.976526 -173.451190 -39.480870 -159.854784 -11.091569 1.240564 -4.689098 -1.183380 39.314776 -20.189301 -3.173813 0.070921 5.249830 3.089852 24.813383 12.185085 8.558400 -0.000001 -62.606700 9.969747 0.508528 6.261661 -0.497082 10.729087 -41.223796 3.460960 0.701381 0.825817 2.347442 15.687682 21.410089 6.860101 0.000000 -78.184400
2.980394 17.026833 0.979792 -173.352344 -39.686200 -159.652364 -11.053511 1.231837 -4.840086 -1.382281 39.649285 -20.421025 -3.268569 0.075320 4.783610 3.030392 24.288471 12.091369 8.299700 0.000000 -62.695500 10.024844 0.652263 6.072924 -0.410964 10.443703 -41.436396 3.486872 0.705981 1.029376 2.361155 15.708210 21.174243 6.807300 0.000000 -78.379200
2.981697 17.015864 0.983037 -173.223173 -39.826130 -159.506134 -11.043006 1.217623 -4.994900 -1.537951 40.100671 -20.619942 -3.369300 0.080343 4.314352 2.967157 23.733504 11.950384 8.011800 -0.000000 -62.722600 10.044569 0.774004 5.927009 -0.349313 10.311754 -41.672353 3.504639 0.703749 1.323643 2.368396 15.617335 20.900880 6.690299 -0.000000 -78.575500
2.980300 17.002611 0.985368 -173.078215 -39.880351 -159.409938 -11.057800 1.204967 -5.145815 -1.661652 40.666540 -20.787404 -3.476175 0.085699 3.853115 2.899206 23.149263 11.775000 7.701601 0.000000 -62.750200 10.031569 0.870834 5.831866 -0.305308 10.319110 -41.961430 3.514573 0.691030 1.747104 2.373189 15.457385 20.569183 6.527000 -0.000000 -78.739400
2.977379 16.987125 0.986919 -172.915021 -39.826240 -159.375855 -11.095507 1.193570 -5.295512 -1.728013 41.337626 -20.901078 -3.586384 0.093395 3.424296 2.828722 22.552265 11.563177 7.375900 -0.000000 -62.760200 9.987221 0.942867 5.791329 -0.288858 10.498764 -42.274636 3.513923 0.671033 2.258209 2.372242 15.207768 20.204448 6.314600 0.000001 -78.881900
2.973673 16.969532 0.987085 -172.739392 -39.662314 -159.393227 -11.149231 1.185415 -5.442420 -1.739487 42.086496 -20.957908 -3.697270 0.103005 3.038571 2.758130 21.965014 11.325346 7.049000 -0.000000 -62.771100 9.918566 0.992688 5.803197 -0.299801 10.836224 -42.618867 3.501639 0.643051 2.855595 2.366202 14.891493 19.805667 6.066500 0.000000 -78.989000
2.969749 16.950331 0.985149 -172.560194 -39.397430 -159.447244 -11.212201 1.180577 -5.583452 -1.700797 42.876783 -20.962066 -3.805186 0.114010 2.703707 2.690831 21.414842 11.074165 6.736700 -0.000000 -62.784600 9.831851 1.023076 5.864904 -0.342573 11.318214 -42.990395 3.476878 0.608902 3.511341 2.354225 14.516078 19.385872 5.791200 -0.000000 -79.056700
2.965703 16.930204 0.980243 -172.382186 -39.044354 -159.504848 -11.275898 1.175578 -5.720302 -1.627546 43.659154 -20.926170 -3.906048 0.126235 2.419605 2.631715 20.936030 10.824500 6.457300 -0.000000 -62.797300 9.736005 1.042341 5.963338 -0.421763 11.920328 -43.394482 3.439320 0.570582 4.197450 2.335679 14.094167 18.956843 5.499300 -0.000000 -79.082799
2.961644 16.909988 0.971400 -172.221174 -38.640593 -159.549249 -11.333417 1.172640 -5.840579 -1.542734 44.382081 -20.864111 -3.994012 0.136546 2.180989 2.584456 20.561030 10.594930 6.228600 -0.000000 -62.804700 9.637357 1.049138 6.100268 -0.544587 12.606205 -43.828856 3.388707 0.529301 4.885123 2.310381 13.639004 18.527145 5.200700 0.000000 -79.066600
2.957834 16.890706 0.958046 -172.087495 -38.226329 -159.560761 -11.376101 1.170337 -5.939003 -1.469663 44.996585 -20.791903 -4.064378 0.142526 1.980229 2.552019 20.314656 10.403941 6.064601 -0.000000 -62.794500 9.544889 1.044555 6.269414 -0.719962 13.340514 -44.287205 3.324169 0.486813 5.540080 2.277159 13.155837 18.109160 4.901800 0.000000 -79.015200
